<svg xmlns="http://www.w3.org/2000/svg" viewBox="0 0 141 48.09"><defs><style>.cls-1,.cls-2{fill:#fff;}.cls-2{fill-rule:evenodd;}</style></defs><title>Logo LD</title><g id="Capa_2" data-name="Capa 2"><g id="Capa_1-2" data-name="Capa 1"><path class="cls-1" d="M69.29,10.38c22.63-9.81,43-13.22,45.38-7.61,1.32,3.06-3,8.16-10.78,13.76a2.75,2.75,0,0,0-1.38-2.13C106.27,11,108.06,8,107.19,6,105,.91,86.86,3.9,66.51,12.61l-.88-.6Q67.43,11.18,69.29,10.38Z"/><path class="cls-2" d="M28.47,0A66.79,66.79,0,0,1,92.58,48.09a81,81,0,0,0-73.52-47c-.93,0-1.85,0-2.77.05A67.18,67.18,0,0,1,28.47,0Z"/><path class="cls-2" d="M91.2,24h4.64c3.17,0,3.08,4.85.06,4.84l-6.82,0a4.07,4.07,0,0,1,0-8.13l8.3,0a.86.86,0,0,1,0,1.72H88.92a2.32,2.32,0,0,0,0,4.62l6.8,0a.74.74,0,0,0,0-1.48H91.22A.81.81,0,0,1,91.2,24Z"/><path class="cls-2" d="M67.08,20.73c2.77.1,5.54,0,8.31,0a4.07,4.07,0,0,1,0,8.13H67.08a.87.87,0,0,1,0-1.74h8.5a2.31,2.31,0,0,0,0-4.62H67.13A.88.88,0,0,1,67.08,20.73Z"/><path class="cls-2" d="M2.65,28.85h9.62a.88.88,0,1,0,0-1.77H2.65a.87.87,0,0,1-.88-.87V21.62h0a.88.88,0,1,0-1.77,0H0v4.59A2.34,2.34,0,0,0,2.65,28.85Z"/><path class="cls-2" d="M130.36,28.84H140a.88.88,0,0,0,0-1.77h-9.62a.87.87,0,0,1-.88-.88V21.61h0a.88.88,0,1,0-1.77,0h0V26.2A2.33,2.33,0,0,0,130.36,28.84Z"/><path class="cls-2" d="M16.86,28a.88.88,0,0,1-1.76,0V21.61a.88.88,0,1,1,1.76,0V28Z"/><path class="cls-2" d="M83,28a.88.88,0,0,1-1.76,0V21.61a.88.88,0,1,1,1.76,0V28Z"/><path class="cls-2" d="M116.15,20.71a.88.88,0,0,1,0,1.76h-4.4c-.28,0-.46.13-.46.45v3.74a.41.41,0,0,0,.42.42h.44a4,4,0,0,0,2.2-.86L123.4,21a1.36,1.36,0,0,1,2.16,1.13V28h0a.88.88,0,1,1-1.76,0V23.54a.43.43,0,0,0-.64-.38L114.84,28a5.57,5.57,0,0,1-2.8.88h-.41a2.13,2.13,0,0,1-2.06-2.11v-3.8a.43.43,0,0,0-.44-.46h-4.38a.88.88,0,1,1,0-1.76h11.39Z"/><path class="cls-2" d="M102.15,28a.88.88,0,1,1-1.76,0V21.61a.88.88,0,1,1,1.76,0V28Z"/><path class="cls-2" d="M55.55,28h0a.88.88,0,0,1-1.76,0V23.55a.43.43,0,0,0-.64-.38L44.84,28a5.61,5.61,0,0,1-2.8.88H33.25A6.44,6.44,0,0,1,29.9,28l-8.33-4.8a.43.43,0,0,0-.69.37v2.74h0V28h0a.88.88,0,0,1-1.76,0V25h0V22.09a1.37,1.37,0,0,1,1.37-1.38,1.35,1.35,0,0,1,.74.21h0l9.53,5.51a.45.45,0,0,0,.7-.36V21.62a.87.87,0,0,1,.88-.91h11.4a.88.88,0,0,1,0,1.76H34a.74.74,0,0,0,0,1.47h5a.8.8,0,0,1,.88.78.88.88,0,0,1-.88.88H34a.73.73,0,0,0,0,1.46h8.19a4.06,4.06,0,0,0,2.2-.87L53.4,21a1.36,1.36,0,0,1,2.16,1.13Z"/><path class="cls-1" d="M47.16,38.66H44.23a1.54,1.54,0,0,1-1-.33.93.93,0,0,1-.35-.73.91.91,0,0,1,.29-.67.92.92,0,0,1,.05-1.39,1.55,1.55,0,0,1,1-.33h2.93v.73H44.42a.43.43,0,0,0-.29.1.28.28,0,0,0-.11.22.27.27,0,0,0,.1.21.43.43,0,0,0,.3.09h2.74v.75h-2.9a.32.32,0,0,0-.18.12.29.29,0,0,0-.07.19.3.3,0,0,0,.1.23.43.43,0,0,0,.3.09h2.74v.75Zm5.56-3.44c-.11.25-.26.58-.45,1s-.46,1-.67,1.4a5.3,5.3,0,0,1-.45.81,1,1,0,0,1-.45.22,2.45,2.45,0,0,1-.63.08,2.59,2.59,0,0,1-.63-.07,1,1,0,0,1-.44-.23,4.51,4.51,0,0,1-.46-.81c-.15-.29-.36-.76-.67-1.4l-.47-1h1.23L50,37.91s0,0,.09,0a.13.13,0,0,0,.11,0l1.31-2.69ZM56,38.66a1.92,1.92,0,0,0,1.43-.53A1.6,1.6,0,0,0,57.91,37a1.66,1.66,0,0,0-.48-1.21A1.87,1.87,0,0,0,56,35.19H54.32a1.89,1.89,0,0,0-1.42.55A1.66,1.66,0,0,0,52.41,37a1.59,1.59,0,0,0,.47,1.17,1.91,1.91,0,0,0,1.43.53Zm-.19-.75H54.51a.78.78,0,0,1-.65-.32,1.1,1.1,0,0,1-.22-.7,1,1,0,0,1,.22-.66.8.8,0,0,1,.66-.3h1.31a.81.81,0,0,1,.66.3,1,1,0,0,1,.22.66,1.11,1.11,0,0,1-.23.7.77.77,0,0,1-.65.32Zm6.77.75H60.53A3.05,3.05,0,0,1,59,38.32a1.45,1.45,0,0,1-.63-.7,1.59,1.59,0,0,1-.12-.63V36.9a.21.21,0,0,1,0-.08V35.19h1.14v1.63a1.07,1.07,0,0,0,.27.74,1.14,1.14,0,0,0,.87.34h2.06v.75Zm4.82-1.24a1.07,1.07,0,0,1-.69,1,3.27,3.27,0,0,1-1.53.32,3.13,3.13,0,0,1-1.48-.32,1.07,1.07,0,0,1-.68-1V35.19h1.12v2.1q0,.27.35.43a1.77,1.77,0,0,0,.77.15,1.68,1.68,0,0,0,.73-.14.51.51,0,0,0,.33-.44v-2.1H67.4v2.22Zm4.82,1.24H69.7a1.93,1.93,0,0,1-1.43-.53A1.58,1.58,0,0,1,67.79,37a1.67,1.67,0,0,1,.48-1.21,1.89,1.89,0,0,1,1.43-.55h2.52v.73H69.89a.81.81,0,0,0-.66.3,1,1,0,0,0-.21.66,1.1,1.1,0,0,0,.22.7.77.77,0,0,0,.65.32h2.33v.75Zm1.61,0H72.7V35.19h1.14v3.46Zm3.84,0H76a1.91,1.91,0,0,1-1.43-.53A1.58,1.58,0,0,1,74.09,37a1.67,1.67,0,0,1,.48-1.21A1.87,1.87,0,0,1,76,35.19h1.69a1.88,1.88,0,0,1,1.42.55A1.67,1.67,0,0,1,79.58,37a1.6,1.6,0,0,1-.47,1.17,1.93,1.93,0,0,1-1.44.53Zm-.19-.75a.78.78,0,0,0,.65-.32,1.12,1.12,0,0,0,.22-.7,1.05,1.05,0,0,0-.21-.66.81.81,0,0,0-.66-.3h-1.3a.81.81,0,0,0-.66.3,1,1,0,0,0-.21.66,1.1,1.1,0,0,0,.22.7.78.78,0,0,0,.66.32Zm7.62.05a.63.63,0,0,1-.4.54,2,2,0,0,1-.91.2,2,2,0,0,1-.82-.16,1.13,1.13,0,0,1-.57-.52s-.13-.29-.31-.74a9.47,9.47,0,0,0-.44-.95c-.17-.31-.31-.46-.42-.45a.24.24,0,0,0-.15.06.14.14,0,0,0,0,.11v2.6H79.91V35.88a.63.63,0,0,1,.43-.58,2.31,2.31,0,0,1,.94-.17,1.54,1.54,0,0,1,1.22.52,3.49,3.49,0,0,1,.58,1.12,6.47,6.47,0,0,0,.44,1.05.27.27,0,0,0,.23.11.26.26,0,0,0,.15,0,.15.15,0,0,0,.06-.13V35.17h1.15V38Zm5.57.7H89.46L88.11,36s0,0-.09,0a.13.13,0,0,0-.1,0L86.6,38.66H85.36c.07-.17.22-.49.45-1s.46-1,.68-1.39a6.06,6.06,0,0,1,.45-.81,1,1,0,0,1,.44-.22,2.46,2.46,0,0,1,.63-.07,2.42,2.42,0,0,1,.63.07,1,1,0,0,1,.44.22,4.49,4.49,0,0,1,.46.8c.15.29.37.76.67,1.38l.46,1Zm5.44-.7a.63.63,0,0,1-.4.54,1.94,1.94,0,0,1-.9.2,2,2,0,0,1-.82-.16,1.16,1.16,0,0,1-.58-.52l-.3-.74a9,9,0,0,0-.44-.95c-.17-.31-.31-.46-.42-.45a.24.24,0,0,0-.15.06.14.14,0,0,0,0,.11v2.6H90.93V35.88a.63.63,0,0,1,.43-.58,2.32,2.32,0,0,1,.94-.17,1.54,1.54,0,0,1,1.22.52,3.6,3.6,0,0,1,.58,1.12,6.16,6.16,0,0,0,.44,1.05.27.27,0,0,0,.23.11.25.25,0,0,0,.15,0,.14.14,0,0,0,.06-.13V35.17h1.15V38Zm3,.7H96.6V35.19h2.52a1.9,1.9,0,0,1,1.43.55A1.66,1.66,0,0,1,101,37a1.59,1.59,0,0,1-.47,1.17,1.94,1.94,0,0,1-1.44.53Zm-.19-.75a.78.78,0,0,0,.65-.32,1.11,1.11,0,0,0,.22-.7,1.05,1.05,0,0,0-.21-.66.81.81,0,0,0-.66-.3H97.74v2Zm5.86.75H103.1a1.91,1.91,0,0,1-1.43-.53A1.58,1.58,0,0,1,101.2,37a1.67,1.67,0,0,1,.48-1.21,1.88,1.88,0,0,1,1.42-.55h1.69a1.88,1.88,0,0,1,1.42.55,1.67,1.67,0,0,1,.48,1.21,1.6,1.6,0,0,1-.47,1.17,1.92,1.92,0,0,1-1.44.53Zm-.19-.75a.77.77,0,0,0,.65-.32,1.1,1.1,0,0,0,.23-.7,1,1,0,0,0-.21-.66.81.81,0,0,0-.66-.3h-1.3a.8.8,0,0,0-.66.3,1,1,0,0,0-.22.66,1.09,1.09,0,0,0,.22.7.78.78,0,0,0,.65.32Zm9.32.75h-2.52a1.94,1.94,0,0,1-1.44-.53,1.59,1.59,0,0,1-.47-1.17,1.68,1.68,0,0,1,.48-1.21,1.89,1.89,0,0,1,1.43-.55h2.52v.73h-2.33a.81.81,0,0,0-.66.3,1,1,0,0,0-.22.66,1.1,1.1,0,0,0,.22.7.78.78,0,0,0,.66.32h2.33v.75Zm3.84,0h-1.69a1.92,1.92,0,0,1-1.43-.53,1.6,1.6,0,0,1-.47-1.17,1.66,1.66,0,0,1,.48-1.21,1.87,1.87,0,0,1,1.42-.55h1.69a1.88,1.88,0,0,1,1.42.55,1.66,1.66,0,0,1,.48,1.21,1.59,1.59,0,0,1-.47,1.17,1.92,1.92,0,0,1-1.43.53Zm-.19-.75a.77.77,0,0,0,.65-.32,1.11,1.11,0,0,0,.23-.7,1,1,0,0,0-.22-.66.81.81,0,0,0-.66-.3h-1.31a.81.81,0,0,0-.66.3,1,1,0,0,0-.21.66,1.1,1.1,0,0,0,.22.7.78.78,0,0,0,.65.32Zm7.62.05a.63.63,0,0,1-.4.54,2,2,0,0,1-.91.2,2,2,0,0,1-.82-.16,1.12,1.12,0,0,1-.57-.52s-.13-.29-.31-.74a9.48,9.48,0,0,0-.44-.95c-.17-.31-.31-.46-.42-.45a.22.22,0,0,0-.15.06.14.14,0,0,0,0,.11v2.6H120V35.88a.63.63,0,0,1,.42-.58,2.3,2.3,0,0,1,.94-.17,1.53,1.53,0,0,1,1.22.52,3.42,3.42,0,0,1,.58,1.12,6.55,6.55,0,0,0,.44,1.05.27.27,0,0,0,.23.11.24.24,0,0,0,.15,0,.14.14,0,0,0,.06-.13V35.17h1.15V38Zm3.76-2h-1.16v2.73h-1.13V35.92h-1.16v-.73h3.46v.73Zm1.49,2.73h-1.14V35.19h1.14v3.46Zm4.82-2.73h-2.33a.81.81,0,0,0-.66.3,1,1,0,0,0-.21.66,1.11,1.11,0,0,0,.22.7.79.79,0,0,0,.66.32h1a.38.38,0,0,0,.28-.1.3.3,0,0,0,.11-.23.29.29,0,0,0-.09-.21.4.4,0,0,0-.29-.09h-.56v-.75h.75a1.53,1.53,0,0,1,1,.33.94.94,0,0,1,0,1.46,1.52,1.52,0,0,1-1,.33h-1.39a1.94,1.94,0,0,1-1.44-.53,1.59,1.59,0,0,1-.47-1.17,1.69,1.69,0,0,1,.48-1.21,1.89,1.89,0,0,1,1.43-.55h2.52v.73Zm3.84,2.73h-1.69a1.91,1.91,0,0,1-1.43-.53A1.59,1.59,0,0,1,135.5,37a1.67,1.67,0,0,1,.49-1.21,1.87,1.87,0,0,1,1.42-.55h1.69a1.87,1.87,0,0,1,1.42.55A1.67,1.67,0,0,1,141,37a1.6,1.6,0,0,1-.47,1.17,1.92,1.92,0,0,1-1.44.53Zm-.19-.75a.78.78,0,0,0,.65-.32,1.11,1.11,0,0,0,.23-.7,1,1,0,0,0-.22-.66.8.8,0,0,0-.66-.3H137.6a.81.81,0,0,0-.66.3,1,1,0,0,0-.21.66,1.11,1.11,0,0,0,.22.7.78.78,0,0,0,.65.32Z"/><circle class="cls-1" cx="101.24" cy="16.64" r="1.83"/></g></g></svg>