<svg id="Capa_1" data-name="Capa 1" xmlns="http://www.w3.org/2000/svg" xmlns:xlink="http://www.w3.org/1999/xlink" viewBox="0 0 140.83 50"><defs><style>.cls-1{fill:url(#linear-gradient);}.cls-2{fill:#7c7e7d;}.cls-2,.cls-3,.cls-4{fill-rule:evenodd;}.cls-3,.cls-5{fill:#002237;}.cls-4{fill:#1b2741;}.cls-6{fill:url(#Degradado_sin_nombre_243);}</style><linearGradient id="linear-gradient" x1="65.83" y1="9.62" x2="113.45" y2="9.62" gradientUnits="userSpaceOnUse"><stop offset="0" stop-color="#aba09b"/><stop offset="0.68" stop-color="#002237"/></linearGradient><radialGradient id="Degradado_sin_nombre_243" cx="107.91" cy="22.53" r="1.97" gradientTransform="translate(3.58 -2.49) scale(0.9)" gradientUnits="userSpaceOnUse"><stop offset="0" stop-color="#fff"/><stop offset="0.5" stop-color="#e6cf33"/><stop offset="1" stop-color="#ba7f13"/></radialGradient></defs><title>LOGUITO</title><path class="cls-1" d="M69.37,11.63c21.87-9.48,41.51-12.77,43.85-7.36,1.28,3-2.85,7.89-10.42,13.3a2.66,2.66,0,0,0-1.33-2.06c3.63-3.32,5.37-6.21,4.53-8.15-2.12-4.88-19.65-2-39.32,6.42l-.85-.58Q67.57,12.41,69.37,11.63Z"/><path class="cls-2" d="M29.92,1.61a64.55,64.55,0,0,1,62,46.47,78.26,78.26,0,0,0-71-45.45c-.9,0-1.79,0-2.68.05A64.93,64.93,0,0,1,29.92,1.61Z"/><path class="cls-3" d="M90.54,24.79H95c3.06,0,3,4.69.06,4.67l-6.59,0a3.93,3.93,0,0,1,0-7.86l8,0a.83.83,0,0,1,0,1.66h-8.2a2.24,2.24,0,0,0,0,4.47l6.57,0a.72.72,0,0,0,0-1.43H90.56A.79.79,0,0,1,90.54,24.79Z"/><path class="cls-3" d="M67.23,21.63c2.68.1,5.35,0,8,0a3.93,3.93,0,0,1,0,7.86h-8a.84.84,0,0,1,0-1.69h8.21a2.24,2.24,0,0,0,0-4.46h-8.1A.85.85,0,0,1,67.23,21.63Z"/><path class="cls-3" d="M5,29.48h9.29a.85.85,0,1,0,0-1.71H5a.84.84,0,0,1-.85-.85V22.5h0a.85.85,0,1,0-1.71,0h0v4.44A2.26,2.26,0,0,0,5,29.48Z"/><path class="cls-4" d="M128.38,29.47h9.29a.85.85,0,0,0,0-1.71h-9.29a.84.84,0,0,1-.85-.85V22.49h0a.85.85,0,1,0-1.71,0h0v4.44A2.26,2.26,0,0,0,128.38,29.47Z"/><path class="cls-3" d="M18.69,28.63a.85.85,0,0,1-1.7,0V22.49a.85.85,0,1,1,1.7,0v6.14Z"/><path class="cls-3" d="M82.63,28.63a.85.85,0,0,1-1.7,0V22.49a.85.85,0,1,1,1.7,0v6.14Z"/><path class="cls-3" d="M114.65,21.62a.85.85,0,0,1,0,1.7H110.4c-.27,0-.45.13-.45.43v3.61a.4.4,0,0,0,.4.4h.42a3.91,3.91,0,0,0,2.13-.83l8.75-5.06A1.32,1.32,0,0,1,123.75,23v5.66h0a.85.85,0,1,1-1.7,0V24.35a.41.41,0,0,0-.62-.37l-8,4.64a5.38,5.38,0,0,1-2.71.85h-.4a2.05,2.05,0,0,1-2-2V23.76a.42.42,0,0,0-.43-.44h-4.23a.85.85,0,1,1,0-1.7h11Z"/><path class="cls-3" d="M101.12,28.63a.85.85,0,0,1-1.7,0V22.49a.85.85,0,1,1,1.7,0v6.14Z"/><path class="cls-3" d="M56.09,28.63h0a.85.85,0,0,1-1.7,0V24.36a.41.41,0,0,0-.62-.37l-8,4.64a5.42,5.42,0,0,1-2.71.85h-8.5a6.22,6.22,0,0,1-3.23-.85L23.25,24a.42.42,0,0,0-.66.35V27h0v1.64h0a.85.85,0,0,1-1.7,0V25.72h0V22.95a1.33,1.33,0,0,1,1.33-1.33,1.31,1.31,0,0,1,.72.21h0l9.21,5.32a.43.43,0,0,0,.68-.35V22.5a.84.84,0,0,1,.85-.88h11a.85.85,0,0,1,0,1.7H35.22a.71.71,0,0,0,0,1.43H40a.78.78,0,0,1,.85.76.85.85,0,0,1-.85.85H35.22a.71.71,0,0,0,0,1.41h7.91a3.93,3.93,0,0,0,2.13-.84L54,21.88A1.32,1.32,0,0,1,56.09,23Z"/><path class="cls-5" d="M48,39H45.15a1.49,1.49,0,0,1-1-.32.9.9,0,0,1-.33-.71.88.88,0,0,1,.28-.65.89.89,0,0,1,.05-1.35,1.49,1.49,0,0,1,1-.32H48v.71H45.33a.42.42,0,0,0-.28.09.27.27,0,0,0-.1.21.27.27,0,0,0,.1.21.42.42,0,0,0,.29.08H48v.72h-2.8a.31.31,0,0,0-.17.11.28.28,0,0,0-.06.18.29.29,0,0,0,.1.22.42.42,0,0,0,.29.09H48V39Zm5.38-3.32c-.1.25-.25.56-.44,1s-.45.94-.65,1.35a5.12,5.12,0,0,1-.44.78,1,1,0,0,1-.44.22,2.37,2.37,0,0,1-.61.07,2.5,2.5,0,0,1-.61-.07,1,1,0,0,1-.43-.22,4.36,4.36,0,0,1-.44-.78c-.14-.28-.35-.73-.64-1.35l-.45-1H49.4l1.3,2.6s0,0,.08,0a.13.13,0,0,0,.11,0l1.27-2.6ZM56.53,39a1.86,1.86,0,0,0,1.39-.51,1.55,1.55,0,0,0,.45-1.13,1.61,1.61,0,0,0-.47-1.17,1.81,1.81,0,0,0-1.37-.54H54.89a1.82,1.82,0,0,0-1.38.54,1.61,1.61,0,0,0-.47,1.17,1.53,1.53,0,0,0,.46,1.13,1.85,1.85,0,0,0,1.38.51Zm-.19-.72H55.08a.75.75,0,0,1-.63-.31,1.06,1.06,0,0,1-.21-.67,1,1,0,0,1,.21-.64.77.77,0,0,1,.63-.29h1.26a.78.78,0,0,1,.64.29,1,1,0,0,1,.21.64,1.08,1.08,0,0,1-.22.67.74.74,0,0,1-.63.31Zm6.54.72h-2a3,3,0,0,1-1.49-.32,1.41,1.41,0,0,1-.61-.68,1.54,1.54,0,0,1-.12-.61v-.09a.2.2,0,0,1,0-.08V35.61h1.1v1.57a1,1,0,0,0,.27.72,1.1,1.1,0,0,0,.84.33h2V39Zm4.66-1.2a1,1,0,0,1-.67.92,3.16,3.16,0,0,1-1.48.31A3,3,0,0,1,64,38.69a1,1,0,0,1-.65-.93V35.61h1.08v2q0,.26.33.42a1.71,1.71,0,0,0,.74.14,1.62,1.62,0,0,0,.7-.14.49.49,0,0,0,.32-.43v-2h1v2.15ZM72.2,39H69.76a1.87,1.87,0,0,1-1.39-.51,1.53,1.53,0,0,1-.46-1.13,1.61,1.61,0,0,1,.46-1.17,1.83,1.83,0,0,1,1.38-.54H72.2v.71H69.95a.78.78,0,0,0-.64.29,1,1,0,0,0-.21.64,1.07,1.07,0,0,0,.22.67.75.75,0,0,0,.63.31H72.2V39Zm1.56,0h-1.1V35.61h1.1V39Zm3.71,0H75.84a1.84,1.84,0,0,1-1.38-.51A1.53,1.53,0,0,1,74,37.31a1.61,1.61,0,0,1,.47-1.17,1.8,1.8,0,0,1,1.37-.54h1.63a1.82,1.82,0,0,1,1.38.54,1.61,1.61,0,0,1,.46,1.17,1.54,1.54,0,0,1-.45,1.13,1.86,1.86,0,0,1-1.39.51Zm-.18-.72a.75.75,0,0,0,.63-.31,1.08,1.08,0,0,0,.21-.67,1,1,0,0,0-.21-.64.79.79,0,0,0-.64-.29H76a.78.78,0,0,0-.64.29,1,1,0,0,0-.2.64,1.06,1.06,0,0,0,.21.67.76.76,0,0,0,.64.31Zm7.37.05a.61.61,0,0,1-.39.52,1.88,1.88,0,0,1-.88.19,2,2,0,0,1-.79-.15,1.09,1.09,0,0,1-.55-.5s-.12-.28-.3-.71a9.15,9.15,0,0,0-.42-.92c-.16-.3-.3-.45-.4-.44a.23.23,0,0,0-.14.06.14.14,0,0,0,0,.11V39h-1.1V36.28a.61.61,0,0,1,.41-.56,2.23,2.23,0,0,1,.91-.16,1.48,1.48,0,0,1,1.18.5,3.38,3.38,0,0,1,.56,1.08,6.25,6.25,0,0,0,.43,1,.26.26,0,0,0,.22.11.25.25,0,0,0,.15,0,.14.14,0,0,0,.06-.12V35.59h1.11v2.7ZM90,39H88.85l-1.3-2.57s0,0-.09,0a.12.12,0,0,0-.1,0L86.09,39H84.9c.07-.16.21-.47.44-.95s.44-.92.65-1.34a5.86,5.86,0,0,1,.43-.78,1,1,0,0,1,.43-.21,2.38,2.38,0,0,1,.61-.07,2.34,2.34,0,0,1,.61.07,1,1,0,0,1,.43.21,4.34,4.34,0,0,1,.44.78c.15.28.36.73.64,1.34L90,39Zm5.26-.67a.61.61,0,0,1-.39.52A1.87,1.87,0,0,1,94,39a2,2,0,0,1-.8-.15,1.12,1.12,0,0,1-.56-.5l-.29-.71a8.71,8.71,0,0,0-.42-.92c-.16-.3-.3-.45-.4-.44a.23.23,0,0,0-.14.06.13.13,0,0,0,0,.11V39h-1.1V36.28a.61.61,0,0,1,.41-.56,2.24,2.24,0,0,1,.91-.16,1.49,1.49,0,0,1,1.18.5,3.48,3.48,0,0,1,.56,1.08,6,6,0,0,0,.43,1,.26.26,0,0,0,.23.11.24.24,0,0,0,.14,0,.14.14,0,0,0,.06-.12V35.59H95.3v2.7Zm2.9.67H95.76V35.61h2.44a1.84,1.84,0,0,1,1.38.53,1.61,1.61,0,0,1,.47,1.17,1.54,1.54,0,0,1-.46,1.13,1.88,1.88,0,0,1-1.39.51ZM98,38.24a.75.75,0,0,0,.63-.31,1.07,1.07,0,0,0,.21-.67,1,1,0,0,0-.21-.64.78.78,0,0,0-.64-.29H96.86v1.92Zm5.66.72H102a1.85,1.85,0,0,1-1.38-.51,1.53,1.53,0,0,1-.46-1.13,1.61,1.61,0,0,1,.46-1.17,1.82,1.82,0,0,1,1.37-.54h1.63a1.82,1.82,0,0,1,1.37.54,1.62,1.62,0,0,1,.47,1.17,1.55,1.55,0,0,1-.45,1.13,1.86,1.86,0,0,1-1.39.51Zm-.19-.72a.75.75,0,0,0,.63-.31,1.06,1.06,0,0,0,.22-.67,1,1,0,0,0-.21-.64.78.78,0,0,0-.64-.29h-1.26a.78.78,0,0,0-.64.29,1,1,0,0,0-.21.64,1.05,1.05,0,0,0,.21.67.75.75,0,0,0,.63.31Zm9,.72h-2.44a1.88,1.88,0,0,1-1.39-.51,1.54,1.54,0,0,1-.46-1.13,1.62,1.62,0,0,1,.47-1.17,1.82,1.82,0,0,1,1.38-.54h2.44v.71h-2.25a.78.78,0,0,0-.64.29,1,1,0,0,0-.21.64,1.07,1.07,0,0,0,.21.67.76.76,0,0,0,.63.31h2.25V39Zm3.71,0h-1.63a1.85,1.85,0,0,1-1.38-.51,1.54,1.54,0,0,1-.46-1.13,1.61,1.61,0,0,1,.47-1.17,1.81,1.81,0,0,1,1.37-.54h1.63a1.82,1.82,0,0,1,1.38.54,1.61,1.61,0,0,1,.46,1.17,1.53,1.53,0,0,1-.45,1.13,1.85,1.85,0,0,1-1.39.51Zm-.18-.72a.75.75,0,0,0,.63-.31,1.08,1.08,0,0,0,.22-.67,1,1,0,0,0-.21-.64.78.78,0,0,0-.64-.29h-1.26a.78.78,0,0,0-.64.29,1,1,0,0,0-.21.64,1.07,1.07,0,0,0,.21.67.75.75,0,0,0,.63.31Zm7.37.05a.61.61,0,0,1-.39.52,1.89,1.89,0,0,1-.88.19,1.94,1.94,0,0,1-.79-.15,1.08,1.08,0,0,1-.55-.5s-.12-.28-.3-.71a9.16,9.16,0,0,0-.42-.92c-.16-.3-.3-.45-.4-.44a.22.22,0,0,0-.14.06.13.13,0,0,0,0,.11V39h-1.1V36.28a.61.61,0,0,1,.41-.56,2.23,2.23,0,0,1,.91-.16,1.48,1.48,0,0,1,1.18.5,3.3,3.3,0,0,1,.56,1.08,6.33,6.33,0,0,0,.43,1,.26.26,0,0,0,.23.11.23.23,0,0,0,.14,0,.13.13,0,0,0,.06-.12V35.59h1.11v2.7Zm3.63-2H125.9V39H124.8V36.32h-1.13v-.71H127v.71ZM128.46,39h-1.1V35.61h1.1V39Zm4.65-2.64h-2.25a.78.78,0,0,0-.64.29,1,1,0,0,0-.21.64,1.07,1.07,0,0,0,.21.67.77.77,0,0,0,.63.31h1a.37.37,0,0,0,.27-.09.29.29,0,0,0,.1-.22.28.28,0,0,0-.09-.21.39.39,0,0,0-.28-.09h-.54v-.72H132a1.48,1.48,0,0,1,1,.32.91.91,0,0,1,0,1.41,1.47,1.47,0,0,1-1,.32h-1.35a1.87,1.87,0,0,1-1.39-.51,1.54,1.54,0,0,1-.45-1.13,1.63,1.63,0,0,1,.46-1.17,1.83,1.83,0,0,1,1.38-.54h2.44v.71ZM136.83,39H135.2a1.85,1.85,0,0,1-1.38-.51,1.54,1.54,0,0,1-.46-1.13,1.61,1.61,0,0,1,.47-1.17,1.8,1.8,0,0,1,1.37-.54h1.63a1.81,1.81,0,0,1,1.37.54,1.61,1.61,0,0,1,.47,1.17,1.54,1.54,0,0,1-.45,1.13,1.86,1.86,0,0,1-1.39.51Zm-.18-.72a.75.75,0,0,0,.63-.31,1.07,1.07,0,0,0,.22-.67,1,1,0,0,0-.21-.64.78.78,0,0,0-.64-.29h-1.26a.78.78,0,0,0-.63.29,1,1,0,0,0-.21.64,1.07,1.07,0,0,0,.21.67.75.75,0,0,0,.63.31Z"/><circle class="cls-6" cx="100.24" cy="17.69" r="1.76"/></svg>